<!--?xml version="1.0" encoding="utf-8"?-->
<!-- Generator: Adobe Illustrator 22.1.0, SVG Export Plug-In . SVG Version: 6.00 Build 0)  -->
<svg version="1.1" id="_x30_" xmlns="http://www.w3.org/2000/svg" xmlns:xlink="http://www.w3.org/1999/xlink" x="0px" y="0px" viewBox="0 0 600 450" style="width: 600px; height: 450px;" xml:space="preserve">
<style type="text/css">
	.st0{fill:#040000;}
</style>
<g>
	<polygon class="st0" points="600,220.034 600,216.294 489.526,220.682 	" style="fill: rgb(255, 6, 156);"></polygon>
	<polygon class="st0" points="600,211.48 600,207.995 457.014,217.013 	" style="fill: rgb(255, 6, 156);"></polygon>
	<polygon class="st0" points="600,203.96 600,199.368 461.116,212.47 	" style="fill: rgb(255, 6, 156);"></polygon>
	<polygon class="st0" points="600,197.452 600,192.813 442.31,210.835 	" style="fill: rgb(255, 6, 156);"></polygon>
	<polygon class="st0" points="600,181.393 600,177.524 503.903,194.053 	" style="fill: rgb(255, 6, 156);"></polygon>
	<polygon class="st0" points="600,172.488 600,168.792 493.267,189.986 	" style="fill: rgb(255, 6, 156);"></polygon>
	<polygon class="st0" points="600,158.354 600,154.391 450.53,190.57 	" style="fill: rgb(255, 6, 156);"></polygon>
	<polygon class="st0" points="600,149.533 600,145.493 474.929,179.825 	" style="fill: rgb(255, 6, 156);"></polygon>
	<polygon class="st0" points="600,141.917 600,137.652 468.712,177.086 	" style="fill: rgb(255, 6, 156);"></polygon>
	<polygon class="st0" points="600,124.621 600,120.078 447.372,174.582 	" style="fill: rgb(255, 6, 156);"></polygon>
	<polygon class="st0" points="600,115.309 600,109.688 440.766,172.224 	" style="fill: rgb(255, 6, 156);"></polygon>
	<polygon class="st0" points="600,95.705 600,89.8 427.74,168.701 	" style="fill: rgb(255, 6, 156);"></polygon>
	<polygon class="st0" points="600,87.204 600,80.638 460.661,149.472 	" style="fill: rgb(255, 6, 156);"></polygon>
	<polygon class="st0" points="600,75.574 600,69.443 456.975,145.23 	" style="fill: rgb(255, 6, 156);"></polygon>
	<polygon class="st0" points="600,64.927 600,58.534 427.383,155.69 	" style="fill: rgb(255, 6, 156);"></polygon>
	<polygon class="st0" points="600,40.171 600,31.559 424.011,146.846 	" style="fill: rgb(255, 6, 156);"></polygon>
	<polygon class="st0" points="439.663,123.776 600,11.775 600,3.209 	" style="fill: rgb(255, 6, 156);"></polygon>
	<polygon class="st0" points="597.081,0 585.359,0 412.805,137.817 	" style="fill: rgb(255, 6, 156);"></polygon>
	<polygon class="st0" points="581.089,0 567.104,0 434.068,114.882 	" style="fill: rgb(255, 6, 156);"></polygon>
	<polygon class="st0" points="549.703,0 538.416,0 390.577,141.468 	" style="fill: rgb(255, 6, 156);"></polygon>
	<polygon class="st0" points="520.552,0 511.341,0 389.233,132.001 	" style="fill: rgb(255, 6, 156);"></polygon>
	<polygon class="st0" points="491.861,0 484.026,0 393.314,113.26 	" style="fill: rgb(255, 6, 156);"></polygon>
	<polygon class="st0" points="477.92,0 470.261,0 395.151,101.991 	" style="fill: rgb(255, 6, 156);"></polygon>
	<polygon class="st0" points="451.205,0 444.612,0 377.725,106.739 	" style="fill: rgb(255, 6, 156);"></polygon>
	<polygon class="st0" points="436.707,0 430.482,0 371.503,104.551 	" style="fill: rgb(255, 6, 156);"></polygon>
	<polygon class="st0" points="414.517,0 407.72,0 357.849,107.836 	" style="fill: rgb(255, 6, 156);"></polygon>
	<polygon class="st0" points="391.236,0 384.715,0 349.458,98.478 	" style="fill: rgb(255, 6, 156);"></polygon>
	<polygon class="st0" points="368.855,0 363.74,0 331.967,116.495 	" style="fill: rgb(255, 6, 156);"></polygon>
	<polygon class="st0" points="357.65,0 352.706,0 334.294,85.135 	" style="fill: rgb(255, 6, 156);"></polygon>
	<polygon class="st0" points="343.126,0 329.663,77.55 347.414,0 	" style="fill: rgb(255, 6, 156);"></polygon>
	<polygon class="st0" points="327.663,0 322.729,0 315.096,90.172 	" style="fill: rgb(255, 6, 156);"></polygon>
	<polygon class="st0" points="312.532,0 310.15,72.617 317.449,0 	" style="fill: rgb(255, 6, 156);"></polygon>
	<polygon class="st0" points="302.179,0 302.601,103.531 307.458,0 	" style="fill: rgb(255, 6, 156);"></polygon>
	<polygon class="st0" points="287.273,0 283.799,0 289.761,65.703 	" style="fill: rgb(255, 6, 156);"></polygon>
	<polygon class="st0" points="278.323,0 273.394,0 285.532,90.134 	" style="fill: rgb(255, 6, 156);"></polygon>
	<polygon class="st0" points="258.196,0 253.401,0 270.352,74.056 	" style="fill: rgb(255, 6, 156);"></polygon>
	<polygon class="st0" points="247.016,0 241.544,0 269.585,102.161 	" style="fill: rgb(255, 6, 156);"></polygon>
	<polygon class="st0" points="226.219,0 219.694,0 263.153,117.369 	" style="fill: rgb(255, 6, 156);"></polygon>
	<polygon class="st0" points="213.29,0 207.351,0 252.297,105.293 	" style="fill: rgb(255, 6, 156);"></polygon>
	<polygon class="st0" points="201.363,0 196.919,0 233.714,77.105 	" style="fill: rgb(255, 6, 156);"></polygon>
	<polygon class="st0" points="181.693,0 173.873,0 242.376,118.887 	" style="fill: rgb(255, 6, 156);"></polygon>
	<polygon class="st0" points="167.269,0 160.507,0 238.793,123.802 	" style="fill: rgb(255, 6, 156);"></polygon>
	<polygon class="st0" points="157.045,0 149.729,0 228.891,115.847 	" style="fill: rgb(255, 6, 156);"></polygon>
	<polygon class="st0" points="127.605,0 120.015,0 215.652,117.26 	" style="fill: rgb(255, 6, 156);"></polygon>
	<polygon class="st0" points="113.593,0 106.145,0 210.837,119.464 	" style="fill: rgb(255, 6, 156);"></polygon>
	<polygon class="st0" points="82.037,0 73.235,0 211.786,135.72 	" style="fill: rgb(255, 6, 156);"></polygon>
	<polygon class="st0" points="49.757,0 35.344,0 203.54,140.653 	" style="fill: rgb(255, 6, 156);"></polygon>
	<polygon class="st0" points="8.825,0 0,0 0,3.578 159.901,119.189 	" style="fill: rgb(255, 6, 156);"></polygon>
	<polygon class="st0" points="0,8.655 0,20.584 191.746,149.13 	" style="fill: rgb(255, 6, 156);"></polygon>
	<polygon class="st0" points="0,39.882 0,49.67 166.36,144.758 	" style="fill: rgb(255, 6, 156);"></polygon>
	<polygon class="st0" points="0,53.264 0,60.716 159.123,146.131 	" style="fill: rgb(255, 6, 156);"></polygon>
	<polygon class="st0" points="0,75.298 0,81.711 144.945,149.306 	" style="fill: rgb(255, 6, 156);"></polygon>
	<polygon class="st0" points="0,94.701 0,99.812 127.088,151.389 	" style="fill: rgb(255, 6, 156);"></polygon>
	<polygon class="st0" points="0,102.852 0,109.412 156.768,168.266 	" style="fill: rgb(255, 6, 156);"></polygon>
	<polygon class="st0" points="0,114.629 0,119.717 133.154,165.045 	" style="fill: rgb(255, 6, 156);"></polygon>
	<polygon class="st0" points="0,131.515 0,136.44 111.409,167.796 	" style="fill: rgb(255, 6, 156);"></polygon>
	<polygon class="st0" points="0,138.5 0,144.275 143.842,181.49 	" style="fill: rgb(255, 6, 156);"></polygon>
	<polygon class="st0" points="0,157.493 0,160.899 113.587,184.117 	" style="fill: rgb(255, 6, 156);"></polygon>
	<polygon class="st0" points="0,173.459 0,178.237 137.251,198.342 	" style="fill: rgb(255, 6, 156);"></polygon>
	<polygon class="st0" points="0,181.66 0,185.898 145.201,203.734 	" style="fill: rgb(255, 6, 156);"></polygon>
	<polygon class="st0" points="0,188.582 0,192.227 149.005,207.59 	" style="fill: rgb(255, 6, 156);"></polygon>
	<polygon class="st0" points="0,203.21 0,206.937 97.362,211.543 	" style="fill: rgb(255, 6, 156);"></polygon>
	<polygon class="st0" points="0,210.098 0,213.792 96.911,216.164 	" style="fill: rgb(255, 6, 156);"></polygon>
	<polygon class="st0" points="0,224.979 0,228.635 119.603,226.086 	" style="fill: rgb(255, 6, 156);"></polygon>
	<polygon class="st0" points="0,238.14 0,242.071 97.026,235.218 	" style="fill: rgb(255, 6, 156);"></polygon>
	<polygon class="st0" points="0,253.954 0,257.056 98.413,245.495 	" style="fill: rgb(255, 6, 156);"></polygon>
	<polygon class="st0" points="0,260.444 0,263.743 94.733,250.376 	" style="fill: rgb(255, 6, 156);"></polygon>
	<polygon class="st0" points="0,274.078 0,278.512 133.089,253.533 	" style="fill: rgb(255, 6, 156);"></polygon>
	<polygon class="st0" points="0,280.702 0,285.533 152.084,253.649 	" style="fill: rgb(255, 6, 156);"></polygon>
	<polygon class="st0" points="0,298.006 0,302.246 107.037,273.311 	" style="fill: rgb(255, 6, 156);"></polygon>
	<polygon class="st0" points="0,306.543 0,311.75 131.022,272.384 	" style="fill: rgb(255, 6, 156);"></polygon>
	<polygon class="st0" points="0,325.661 0,330.21 152.698,275.533 	" style="fill: rgb(255, 6, 156);"></polygon>
	<polygon class="st0" points="0,333.477 0,339.183 142.428,283.459 	" style="fill: rgb(255, 6, 156);"></polygon>
	<polygon class="st0" points="0,353.025 0,358.939 175.927,279.159 	" style="fill: rgb(255, 6, 156);"></polygon>
	<polygon class="st0" points="0,374.191 0,380.317 181.097,285.332 	" style="fill: rgb(255, 6, 156);"></polygon>
	<polygon class="st0" points="0,383.208 0,391.711 176.126,292.055 	" style="fill: rgb(255, 6, 156);"></polygon>
	<polygon class="st0" points="0,406.656 0,414.413 167.905,306.668 	" style="fill: rgb(255, 6, 156);"></polygon>
	<polygon class="st0" points="0,418.849 0,430.058 189.101,298.69 	" style="fill: rgb(255, 6, 156);"></polygon>
	<polygon class="st0" points="0,446.238 0,450 9.464,450 156.706,333.299 	" style="fill: rgb(255, 6, 156);"></polygon>
	<polygon class="st0" points="14.443,450 26.963,450 161.416,336.694 	" style="fill: rgb(255, 6, 156);"></polygon>
	<polygon class="st0" points="51.085,450 63.512,450 192.359,324.837 	" style="fill: rgb(255, 6, 156);"></polygon>
	<polygon class="st0" points="71.256,450 81.04,450 189.383,336.223 	" style="fill: rgb(255, 6, 156);"></polygon>
	<polygon class="st0" points="85.336,450 96.247,450 210.004,321.827 	" style="fill: rgb(255, 6, 156);"></polygon>
	<polygon class="st0" points="113.449,450 120.233,450 198.81,349.332 	" style="fill: rgb(255, 6, 156);"></polygon>
	<polygon class="st0" points="126.574,450 135.784,450 222.84,327.871 	" style="fill: rgb(255, 6, 156);"></polygon>
	<polygon class="st0" points="153.959,450 160.055,450 216.447,356.497 	" style="fill: rgb(255, 6, 156);"></polygon>
	<polygon class="st0" points="165.495,450 171.805,450 216.58,367.934 	" style="fill: rgb(255, 6, 156);"></polygon>
	<polygon class="st0" points="187.42,450 194.622,450 250.995,326.201 	" style="fill: rgb(255, 6, 156);"></polygon>
	<polygon class="st0" points="198.498,450 205.116,450 249.623,340.461 	" style="fill: rgb(255, 6, 156);"></polygon>
	<polygon class="st0" points="222.574,450 229.573,450 265.659,329.542 	" style="fill: rgb(255, 6, 156);"></polygon>
	<polygon class="st0" points="243.77,450 248.691,450 273.052,337.78 	" style="fill: rgb(255, 6, 156);"></polygon>
	<polygon class="st0" points="253.055,450 259.183,450 278.56,334.953 	" style="fill: rgb(255, 6, 156);"></polygon>
	<polygon class="st0" points="274.571,450 278.834,450 284.965,370.228 	" style="fill: rgb(255, 6, 156);"></polygon>
	<polygon class="st0" points="288.225,450 290.772,377.416 284.526,450 	" style="fill: rgb(255, 6, 156);"></polygon>
	<polygon class="st0" points="305.263,450 311.291,450 304.466,346.439 	" style="fill: rgb(255, 6, 156);"></polygon>
	<polygon class="st0" points="315.078,450 319.733,450 310.181,356.627 	" style="fill: rgb(255, 6, 156);"></polygon>
	<polygon class="st0" points="335.958,450 340.914,450 318.241,331.796 	" style="fill: rgb(255, 6, 156);"></polygon>
	<polygon class="st0" points="346.393,450 351.231,450 328.228,355.137 	" style="fill: rgb(255, 6, 156);"></polygon>
	<polygon class="st0" points="374.408,450 380.348,450 343.897,352.671 	" style="fill: rgb(255, 6, 156);"></polygon>
	<polygon class="st0" points="384.391,450 388.814,450 355.137,368.271 	" style="fill: rgb(255, 6, 156);"></polygon>
	<polygon class="st0" points="394.993,450 400.46,450 360.146,363.504 	" style="fill: rgb(255, 6, 156);"></polygon>
	<polygon class="st0" points="417.336,450 424.157,450 357.03,331.293 	" style="fill: rgb(255, 6, 156);"></polygon>
	<polygon class="st0" points="430.832,450 438.394,450 373.836,348.45 	" style="fill: rgb(255, 6, 156);"></polygon>
	<polygon class="st0" points="455.153,450 463.144,450 367.263,320.118 	" style="fill: rgb(255, 6, 156);"></polygon>
	<polygon class="st0" points="479.681,450 486.938,450 403.649,352.254 	" style="fill: rgb(255, 6, 156);"></polygon>
	<polygon class="st0" points="495.127,450 502.993,450 386.998,323.356 	" style="fill: rgb(255, 6, 156);"></polygon>
	<polygon class="st0" points="527.155,450 539.175,450 424.796,345.491 	" style="fill: rgb(255, 6, 156);"></polygon>
	<polygon class="st0" points="564.07,450 576.829,450 439.258,340.914 	" style="fill: rgb(255, 6, 156);"></polygon>
	<polygon class="st0" points="583.841,450 597.071,450 441.468,334.641 	" style="fill: rgb(255, 6, 156);"></polygon>
	<polygon class="st0" points="600,449.442 600,439.861 415.928,309.847 	" style="fill: rgb(255, 6, 156);"></polygon>
	<polygon class="st0" points="600,421.808 600,414.269 426.446,306.341 	" style="fill: rgb(255, 6, 156);"></polygon>
	<polygon class="st0" points="600,411.45 600,401.585 433.266,305.592 	" style="fill: rgb(255, 6, 156);"></polygon>
	<polygon class="st0" points="600,386.292 600,380.043 424.988,290.882 	" style="fill: rgb(255, 6, 156);"></polygon>
	<polygon class="st0" points="600,376.919 600,369.485 473.759,310.799 	" style="fill: rgb(255, 6, 156);"></polygon>
	<polygon class="st0" points="600,355.484 600,348.981 436.999,283.085 	" style="fill: rgb(255, 6, 156);"></polygon>
	<polygon class="st0" points="600,333.55 600,328.268 488.237,291.433 	" style="fill: rgb(255, 6, 156);"></polygon>
	<polygon class="st0" points="600,315.848 600,310.723 437.929,265.582 	" style="fill: rgb(255, 6, 156);"></polygon>
	<polygon class="st0" points="600,306.023 600,300.554 466.039,268.317 	" style="fill: rgb(255, 6, 156);"></polygon>
	<polygon class="st0" points="600,297.963 600,293.439 489.685,269.692 	" style="fill: rgb(255, 6, 156);"></polygon>
	<polygon class="st0" points="600,281.486 600,277.073 484.328,258.343 	" style="fill: rgb(255, 6, 156);"></polygon>
	<polygon class="st0" points="600,274.155 600,270.034 445.022,247.762 	" style="fill: rgb(255, 6, 156);"></polygon>
	<polygon class="st0" points="600,260.137 600,255.843 446.596,241.118 	" style="fill: rgb(255, 6, 156);"></polygon>
	<polygon class="st0" points="600,245.361 600,242.115 475.19,235.941 	" style="fill: rgb(255, 6, 156);"></polygon>
	<polygon class="st0" points="600,238.056 600,234.114 443.384,230.297 	" style="fill: rgb(255, 6, 156);"></polygon>
</g>
</svg>
